<?xml version="1.0" standalone="no"?>
<!DOCTYPE svg PUBLIC "-//W3C//DTD SVG 20010904//EN"
 "http://www.w3.org/TR/2001/REC-SVG-20010904/DTD/svg10.dtd">
<svg version="1.0" xmlns="http://www.w3.org/2000/svg"
 width="103.000000pt" height="103.000000pt" viewBox="0 0 103.000000 103.000000"
 preserveAspectRatio="xMidYMid meet">

<g transform="translate(0.000000,103.000000) scale(0.100000,-0.100000)"
fill="#000000" stroke="none">
<path d="M420 891 c-108 -33 -220 -151 -220 -230 l1 -36 13 25 c8 14 13 27 13
30 -1 3 4 12 10 20 7 8 28 35 46 60 27 36 39 44 60 42 14 -1 28 2 32 8 3 6 11
8 16 4 5 -3 17 0 26 8 21 17 174 18 195 1 8 -7 36 -16 61 -19 52 -7 67 -23
125 -126 27 -47 31 -63 26 -96 -4 -23 -1 -48 5 -61 7 -12 9 -31 5 -43 -6 -19
-7 -20 -16 -4 -11 20 -28 12 -28 -15 0 -10 -4 -19 -9 -19 -5 0 -5 18 1 42 8
38 7 44 -14 60 -32 24 -65 22 -82 -5 -24 -36 -47 -153 -44 -220 3 -52 6 -63
26 -73 12 -6 33 -9 46 -7 20 4 26 14 34 51 7 34 10 39 11 20 1 -17 7 -28 16
-28 13 0 20 18 41 105 4 17 14 40 22 52 14 23 13 70 -3 107 -6 15 -5 17 5 11
10 -6 11 0 4 31 -4 21 -8 55 -9 76 -1 79 -108 193 -208 223 -53 16 -164 19
-207 6z"/>
<path d="M630 745 c-5 -14 -13 -37 -16 -51 -8 -29 -20 -39 -27 -20 -7 18 -64
46 -82 40 -7 -3 -16 -12 -19 -20 -3 -8 -12 -11 -21 -8 -10 4 -24 -2 -35 -14
-10 -11 -25 -22 -32 -25 -29 -10 3 -16 121 -23 l123 -7 -6 29 c-4 16 0 50 8
77 15 49 3 67 -14 22z"/>
<path d="M191 610 c-1 -8 -4 -26 -8 -39 -5 -18 -3 -22 7 -16 10 6 11 3 6 -16
-17 -55 -17 -68 2 -105 10 -22 23 -57 27 -79 13 -75 44 -103 46 -42 1 28 2 26
12 -17 14 -55 38 -72 78 -52 23 11 24 17 23 101 -1 93 -22 183 -49 205 -16 13
-51 8 -77 -12 -14 -11 -16 -20 -8 -53 11 -48 5 -59 -10 -19 -11 27 -12 28 -25
11 -12 -16 -13 -16 -19 -1 -3 9 -1 31 5 48 8 22 8 42 1 66 -6 19 -11 28 -11
20z"/>
<path d="M372 598 c-33 -33 -15 -38 143 -38 158 0 176 5 143 38 -17 17 -269
17 -286 0z"/>
<path d="M472 543 c-102 -4 -104 -4 -99 -26 3 -12 20 -83 38 -157 l32 -135 72
0 73 0 36 155 c20 85 36 158 36 163 0 4 -19 6 -42 5 -24 -1 -90 -4 -146 -5z"/>
<path d="M436 186 c-3 -14 -14 -27 -24 -30 -9 -3 -5 -4 11 -2 21 2 27 -1 27
-15 0 -10 5 -21 10 -24 6 -3 10 -1 10 4 0 6 7 11 15 11 8 0 15 5 15 10 0 6 9
10 20 10 13 0 20 -7 20 -20 0 -11 5 -20 10 -20 6 0 10 5 10 10 0 6 3 9 8 8 4
0 15 2 25 6 21 10 23 30 2 22 -9 -3 -18 1 -21 9 -4 8 -10 12 -15 9 -5 -3 -9 2
-9 10 0 23 -17 20 -23 -4 -5 -21 -47 -29 -47 -9 0 5 -4 7 -10 4 -5 -3 -10 1
-10 9 0 26 -18 27 -24 2z"/>
</g>
</svg>
